<?xml version="1.0" standalone="no"?>
<!DOCTYPE svg PUBLIC "-//W3C//DTD SVG 20010904//EN"
 "http://www.w3.org/TR/2001/REC-SVG-20010904/DTD/svg10.dtd">
<svg version="1.0" xmlns="http://www.w3.org/2000/svg"
 width="3000.000000pt" height="3000.000000pt" viewBox="0 0 3000.000000 3000.000000"
 preserveAspectRatio="xMidYMid meet">

<g transform="translate(0.000000,3000.000000) scale(0.100000,-0.100000)"
fill="#000000" stroke="none">
<path d="M14582 24849 c-109 -53 -240 -178 -404 -387 -339 -429 -411 -516
-522 -627 -152 -151 -214 -186 -339 -193 -69 -4 -94 0 -162 22 -136 46 -226
100 -755 457 -365 246 -515 315 -663 307 -91 -5 -136 -26 -207 -98 -101 -101
-176 -261 -295 -620 -168 -506 -250 -690 -366 -814 -37 -40 -89 -84 -116 -99
-185 -100 -446 -69 -855 103 -88 38 -144 55 -198 61 -41 5 -145 24 -230 41
-135 28 -176 32 -315 32 -146 1 -164 -1 -210 -22 -100 -46 -159 -127 -197
-270 -17 -68 -21 -125 -29 -470 -12 -563 -32 -747 -97 -915 -83 -215 -233
-304 -566 -336 -60 -6 -256 -11 -435 -11 -357 0 -521 -11 -637 -40 -253 -65
-355 -224 -323 -506 12 -107 32 -193 139 -569 116 -412 149 -601 129 -745 -37
-264 -207 -376 -999 -657 -297 -105 -463 -205 -553 -333 -107 -153 -86 -365
57 -594 25 -39 123 -183 218 -319 356 -507 437 -670 426 -850 -13 -203 -155
-349 -778 -802 -306 -223 -427 -354 -466 -505 -28 -108 -1 -215 85 -336 56
-79 215 -236 314 -309 l69 -50 -1171 -3 -1171 -2 0 -190 0 -190 12040 0 12040
0 0 190 0 190 -1432 0 -1433 0 55 47 c108 91 288 279 328 342 138 214 104 373
-129 596 -46 44 -118 107 -159 140 -254 200 -425 339 -495 400 -351 308 -412
481 -277 785 54 121 127 243 342 570 103 157 204 318 224 358 94 188 111 366
47 496 -59 120 -179 216 -356 285 -55 22 -199 67 -320 101 -545 152 -702 212
-796 303 -105 100 -134 195 -126 402 9 217 70 474 217 917 90 269 104 335 98
456 -9 181 -99 293 -289 356 -144 48 -234 57 -689 66 -461 9 -602 22 -734 65
-200 65 -287 180 -327 430 -6 39 -14 282 -19 540 -10 565 -22 669 -96 816 -29
59 -111 132 -172 154 -71 26 -243 31 -382 11 -63 -9 -245 -46 -405 -81 -500
-111 -593 -126 -751 -126 -319 -1 -428 120 -670 739 -46 119 -103 264 -126
322 -134 343 -243 498 -376 536 -144 42 -297 -21 -746 -308 -398 -254 -561
-345 -706 -390 -145 -45 -278 -26 -407 58 -91 59 -281 257 -498 519 -337 407
-425 494 -572 562 -105 48 -170 47 -281 -8z m563 -1409 c1546 -76 3004 -563
4293 -1436 1197 -811 2177 -1920 2829 -3204 635 -1250 947 -2615 919 -4015 -3
-181 -9 -345 -12 -362 l-6 -33 -170 0 -170 0 9 173 c10 213 10 671 1 872 -60
1212 -426 2462 -1037 3532 -824 1445 -2040 2588 -3523 3313 -807 394 -1612
636 -2508 755 -333 44 -610 60 -1030 60 -435 0 -692 -16 -1070 -66 -2086 -274
-3991 -1356 -5303 -3011 -923 -1165 -1500 -2536 -1687 -4008 -45 -357 -54
-518 -55 -975 0 -242 3 -486 8 -542 l7 -103 -179 0 -178 0 -6 118 c-29 524
-11 1032 53 1542 190 1511 769 2918 1694 4115 601 779 1365 1470 2202 1993
1461 913 3199 1366 4919 1282z m125 -660 c1307 -96 2495 -486 3613 -1183 476
-298 934 -664 1353 -1082 647 -646 1135 -1328 1529 -2138 482 -992 741 -2039
774 -3131 7 -245 -1 -721 -14 -813 l-6 -43 -1441 0 c-793 0 -1439 2 -1437 4 2
2 42 32 89 67 506 372 862 860 945 1291 23 118 21 284 -5 383 -29 115 -88 229
-160 307 -74 82 -132 125 -235 176 -173 86 -351 118 -617 110 l-169 -6 5 27
c18 85 39 290 39 376 1 157 -48 279 -158 391 -67 67 -125 105 -224 143 l-66
26 -4145 3 c-4524 3 -4211 6 -4335 -52 -126 -59 -239 -178 -291 -306 -38 -93
-43 -224 -15 -440 83 -645 257 -1216 542 -1781 119 -236 285 -511 409 -676
l32 -43 -2170 0 -2170 0 -9 118 c-15 211 -9 896 10 1107 50 558 136 1031 277
1520 779 2700 2956 4786 5684 5445 481 116 898 177 1441 210 173 11 730 5 925
-10z m4607 -6620 c200 -65 270 -202 214 -419 -99 -381 -566 -846 -1126 -1121
-146 -72 -362 -156 -372 -146 -2 2 31 57 75 123 281 420 525 944 665 1428 25
87 40 120 53 126 18 6 161 26 229 32 54 4 223 -11 262 -23z"/>
<path d="M14803 21972 c4 -20 29 -88 57 -149 95 -213 126 -366 117 -577 -11
-273 -92 -462 -323 -761 -248 -320 -368 -588 -420 -931 -22 -144 -14 -386 16
-529 95 -450 364 -829 751 -1060 45 -26 114 -62 153 -78 70 -30 257 -89 263
-83 2 2 -63 70 -144 152 -165 167 -252 281 -324 429 -63 130 -89 225 -96 357
-16 288 102 578 373 913 198 245 229 286 289 375 442 659 325 1339 -302 1757
-68 45 -396 223 -411 223 -3 0 -2 -17 1 -38z"/>
<path d="M13770 21598 c4 -24 17 -70 29 -103 60 -165 73 -378 32 -530 -28
-104 -98 -246 -163 -332 -167 -221 -256 -408 -304 -643 -26 -127 -23 -354 5
-485 65 -291 224 -539 437 -680 64 -43 212 -110 221 -101 3 3 -16 29 -42 58
-68 76 -141 181 -186 270 -154 306 -102 607 167 955 185 240 258 364 314 531
113 339 18 690 -248 918 -54 46 -253 184 -266 184 -1 0 0 -19 4 -42z"/>
<path d="M15880 19688 c-47 -67 -154 -214 -238 -327 -218 -293 -270 -410 -259
-571 7 -109 47 -191 141 -285 63 -64 211 -175 234 -175 4 0 -11 39 -35 88 -54
109 -76 196 -75 292 1 138 47 241 202 445 141 186 179 279 180 430 0 85 -33
225 -54 225 -6 -1 -49 -55 -96 -122z"/>
<path d="M8001 13379 c-169 -33 -359 -132 -482 -250 -280 -270 -344 -657 -165
-996 104 -197 256 -331 466 -410 128 -48 213 -63 353 -63 145 0 211 14 367 75
63 24 142 52 175 61 71 19 120 64 165 154 59 117 63 214 10 270 -41 44 -92 42
-147 -5 -52 -44 -150 -91 -222 -106 -31 -6 -100 -9 -157 -7 -87 4 -110 9 -168
36 -169 79 -291 281 -312 515 -15 172 54 318 172 363 71 27 186 16 271 -26 88
-43 145 -102 218 -225 79 -131 103 -148 207 -143 66 3 82 7 120 33 64 46 91
102 96 202 8 157 -44 310 -134 393 l-46 43 -89 -7 c-87 -7 -91 -6 -172 30
-132 58 -211 74 -356 73 -69 -1 -146 -5 -170 -10z"/>
<path d="M14240 13384 c-321 -60 -551 -232 -680 -507 -57 -121 -73 -199 -73
-347 1 -150 22 -241 86 -375 117 -242 343 -413 628 -476 80 -17 118 -20 254
-16 268 7 450 78 596 233 68 73 104 132 143 242 33 90 36 93 105 112 76 20
109 76 91 156 -13 58 -64 97 -163 126 -75 21 -101 23 -307 23 -198 0 -234 -3
-302 -22 -43 -11 -92 -29 -110 -40 -72 -42 -98 -125 -58 -190 25 -42 47 -53
127 -60 82 -8 103 -25 103 -85 0 -126 -129 -177 -270 -107 -135 68 -240 225
-280 419 -45 219 -12 403 90 509 60 61 111 84 206 89 142 8 234 -40 357 -186
82 -98 125 -122 218 -122 76 0 116 20 154 78 72 108 48 301 -54 440 -61 83
-127 99 -252 62 -43 -12 -52 -11 -140 15 -85 25 -111 28 -269 31 -96 1 -186 0
-200 -2z"/>
<path d="M10792 13350 c-196 -52 -308 -169 -320 -330 -6 -85 7 -142 55 -242
42 -88 38 -104 -29 -114 -21 -4 -41 -11 -45 -17 -9 -15 -23 -205 -16 -223 3
-9 21 -14 52 -14 63 0 119 -17 131 -40 13 -24 13 -184 0 -274 -13 -90 -34
-125 -95 -158 -64 -34 -85 -61 -85 -107 0 -49 31 -96 81 -121 74 -38 160 -50
374 -50 353 0 494 42 512 153 11 70 -28 120 -112 147 -52 16 -83 45 -95 89
-19 67 -31 195 -24 259 9 90 24 102 118 102 52 0 79 4 89 14 20 20 34 211 17
231 -9 11 -36 15 -106 15 -109 0 -138 9 -158 48 -8 16 -54 56 -103 90 -126 86
-173 141 -173 202 0 69 72 102 131 62 14 -9 53 -46 85 -81 75 -82 134 -111
225 -111 75 0 117 21 155 78 91 134 -10 312 -216 383 -95 33 -342 38 -448 9z"/>
<path d="M19359 13340 c-132 -28 -279 -70 -327 -92 -77 -37 -111 -103 -82
-159 6 -10 39 -32 74 -48 76 -34 90 -55 84 -128 -6 -71 -16 -80 -64 -55 -73
37 -144 52 -248 52 -167 -1 -295 -58 -415 -186 -115 -123 -171 -267 -171 -439
0 -120 11 -167 66 -280 53 -111 113 -187 193 -248 100 -75 155 -92 296 -92
109 0 125 2 177 27 32 15 79 43 105 63 60 46 85 44 96 -10 16 -73 10 -70 158
-69 154 1 286 26 376 71 71 35 96 68 96 125 0 39 -5 46 -59 95 l-59 53 -5 642
c-5 664 -6 677 -46 692 -30 12 -160 4 -245 -14z m-304 -743 c47 -47 58 -113
53 -316 -4 -141 -8 -175 -27 -223 -27 -70 -60 -98 -113 -98 -107 0 -168 112
-168 305 0 155 37 276 102 337 24 22 40 28 75 28 38 0 50 -5 78 -33z"/>
<path d="M9540 12895 c-88 -20 -171 -50 -253 -93 -171 -88 -235 -234 -142
-319 31 -30 41 -33 95 -33 93 0 147 35 246 159 47 59 81 81 126 81 64 0 97
-62 101 -193 1 -57 -2 -80 -13 -91 -11 -11 -55 -18 -152 -25 -216 -16 -334
-64 -437 -177 -64 -70 -85 -131 -79 -230 9 -129 76 -226 197 -282 48 -23 73
-27 172 -30 138 -5 192 8 291 68 37 22 73 40 80 40 8 0 33 -18 56 -39 62 -58
113 -74 219 -69 102 5 172 33 246 98 52 46 97 128 97 177 0 35 -22 55 -72 67
-55 13 -61 44 -69 336 -4 147 -12 281 -18 302 -30 98 -134 192 -262 238 -53
19 -89 23 -214 26 -105 2 -169 -1 -215 -11z m171 -716 c6 -13 10 -53 7 -100
-4 -97 -25 -132 -83 -137 -103 -9 -138 149 -50 227 45 39 107 44 126 10z"/>
<path d="M12010 12894 c-30 -8 -93 -33 -140 -56 -157 -76 -292 -239 -334 -404
-20 -79 -21 -232 -1 -309 57 -224 231 -399 448 -450 85 -20 282 -20 366 1 136
33 312 142 353 218 33 62 27 133 -17 180 -32 35 -76 34 -134 -3 -76 -49 -165
-74 -246 -69 -85 5 -134 27 -197 89 -50 50 -72 109 -49 132 9 9 106 13 332 17
l321 5 24 30 c36 45 50 123 36 203 -33 193 -198 362 -408 416 -79 20 -277 20
-354 0z m240 -224 c29 -21 60 -84 60 -124 0 -13 -9 -34 -19 -47 -18 -22 -26
-24 -119 -24 -114 0 -132 9 -132 62 0 45 25 97 62 128 38 32 107 34 148 5z"/>
<path d="M15960 12895 c-88 -20 -171 -50 -253 -93 -171 -88 -235 -234 -142
-319 31 -30 41 -33 95 -33 93 0 147 35 246 159 47 59 81 81 126 81 64 0 97
-62 101 -193 1 -57 -2 -80 -13 -91 -11 -11 -55 -18 -152 -25 -216 -16 -334
-64 -437 -177 -64 -70 -85 -131 -79 -230 9 -129 76 -226 197 -282 48 -23 73
-27 172 -30 138 -5 192 8 291 68 37 22 73 40 80 40 8 0 33 -18 56 -39 62 -58
113 -74 219 -69 102 5 172 33 246 98 52 46 97 128 97 177 0 35 -22 55 -72 67
-55 13 -61 44 -69 336 -4 147 -12 281 -18 302 -30 98 -134 192 -262 238 -53
19 -89 23 -214 26 -105 2 -169 -1 -215 -11z m171 -716 c6 -13 10 -53 7 -100
-4 -97 -25 -132 -83 -137 -103 -9 -138 149 -50 227 45 39 107 44 126 10z"/>
<path d="M17265 12893 c-113 -24 -276 -80 -327 -112 -57 -36 -82 -80 -75 -128
8 -45 20 -59 78 -88 34 -17 50 -33 58 -56 23 -67 5 -463 -24 -518 -8 -16 -31
-39 -51 -51 -97 -60 -100 -186 -5 -234 62 -32 176 -46 383 -46 219 0 323 11
378 38 79 39 107 146 53 201 -16 15 -50 36 -78 46 -27 10 -58 26 -68 35 -27
25 -39 131 -35 309 4 213 17 228 116 142 80 -68 109 -81 188 -81 100 0 141 16
205 80 71 70 94 131 87 234 -7 109 -62 194 -150 230 -58 25 -172 21 -233 -8
-48 -22 -120 -90 -144 -135 -7 -11 -20 -21 -31 -21 -20 0 -34 33 -45 110 -3
24 -11 50 -17 57 -15 18 -173 16 -263 -4z"/>
<path d="M20320 12894 c-30 -8 -93 -33 -140 -56 -157 -76 -292 -239 -334 -404
-20 -79 -21 -232 -1 -309 57 -224 231 -399 448 -450 85 -20 282 -20 366 1 136
33 312 142 353 218 33 62 27 133 -17 180 -32 35 -76 34 -134 -3 -76 -49 -165
-74 -246 -69 -85 5 -134 27 -197 89 -50 50 -72 109 -49 132 9 9 106 13 332 17
l321 5 24 30 c36 45 50 123 36 203 -33 193 -198 362 -408 416 -79 20 -277 20
-354 0z m240 -224 c29 -21 60 -84 60 -124 0 -13 -9 -34 -19 -47 -18 -22 -26
-24 -119 -24 -114 0 -132 9 -132 62 0 45 25 97 62 128 38 32 107 34 148 5z"/>
<path d="M21545 12875 c-299 -83 -405 -140 -405 -217 0 -42 13 -61 69 -102 70
-50 75 -74 67 -313 -9 -266 -16 -299 -64 -343 -64 -58 -74 -88 -47 -144 36
-76 138 -100 397 -94 204 6 266 19 321 68 45 40 43 93 -6 173 -45 74 -51 118
-45 351 4 155 8 188 25 228 12 25 30 51 41 57 27 15 105 14 137 -1 64 -29 90
-150 82 -382 -6 -183 -21 -247 -67 -291 -24 -23 -30 -37 -30 -72 0 -106 48
-126 313 -131 277 -5 396 19 431 87 26 50 20 84 -25 137 -67 81 -66 75 -79
379 -17 423 -40 496 -178 583 -81 51 -140 65 -260 60 -136 -4 -197 -30 -274
-119 -80 -90 -118 -90 -118 3 0 53 -20 102 -45 112 -37 14 -127 3 -240 -29z"/>
<path d="M2960 10695 l0 -185 1911 0 c1815 0 1910 -1 1905 -17 -3 -10 -21 -83
-40 -163 -122 -502 -103 -690 81 -787 134 -71 313 -95 863 -113 342 -11 461
-21 586 -50 231 -54 348 -176 399 -419 23 -111 34 -221 50 -531 39 -742 89
-931 267 -1010 136 -60 322 -32 898 132 371 106 476 128 609 128 262 0 412
-126 565 -476 54 -122 82 -204 161 -469 142 -476 255 -650 457 -701 192 -50
420 52 898 397 281 204 406 278 540 322 146 48 255 45 378 -13 85 -40 171
-125 285 -279 231 -316 452 -587 596 -732 77 -76 112 -103 176 -135 76 -38 83
-39 180 -39 93 0 104 2 164 33 151 77 222 153 623 673 171 222 256 317 346
391 198 159 365 172 612 48 41 -21 253 -157 470 -302 217 -145 438 -285 490
-311 112 -55 219 -81 297 -71 148 18 279 139 356 326 112 273 260 660 282 738
66 232 93 295 161 386 104 138 244 204 434 204 164 0 286 -30 686 -171 333
-116 420 -139 564 -146 169 -8 272 22 365 108 54 50 98 117 129 197 57 144 67
265 67 777 0 455 6 524 49 637 69 182 251 304 505 339 66 9 208 10 524 6 365
-6 452 -4 539 9 416 61 529 306 377 810 -19 62 -48 147 -65 189 -16 41 -30 78
-30 80 0 3 983 5 2185 5 l2185 0 0 185 0 185 -12040 0 -12040 0 0 -185z m5434
-312 c363 -458 851 -940 1340 -1322 1227 -960 2683 -1537 4251 -1686 416 -39
1094 -42 1515 -5 1634 142 3213 810 4480 1894 390 333 757 711 1063 1094 l122
152 208 0 208 0 -97 -127 c-361 -473 -809 -951 -1235 -1318 -1286 -1109 -2803
-1797 -4419 -2004 -393 -51 -486 -56 -1070 -56 -595 0 -730 7 -1145 61 -2120
273 -4029 1323 -5402 2971 -95 115 -335 424 -357 461 -6 9 40 12 216 12 l223
-1 99 -126z m12376 122 c0 -10 -202 -241 -353 -403 -300 -322 -648 -634 -1012
-908 -1218 -915 -2640 -1442 -4135 -1534 -212 -13 -787 -13 -1000 0 -2157 130
-4103 1104 -5513 2758 l-78 92 6045 0 c3325 0 6046 -2 6046 -5z"/>
</g>
</svg>
