<?xml version="1.0" standalone="no"?>
<!DOCTYPE svg PUBLIC "-//W3C//DTD SVG 20010904//EN"
 "http://www.w3.org/TR/2001/REC-SVG-20010904/DTD/svg10.dtd">
<svg version="1.0" xmlns="http://www.w3.org/2000/svg"
 width="1080.000000pt" height="1080.000000pt" viewBox="0 0 1080.000000 1080.000000"
 preserveAspectRatio="xMidYMid meet">

<g transform="translate(0.000000,1080.000000) scale(0.100000,-0.100000)"
fill="#000000" stroke="none">
<path d="M5080 10020 c-790 -73 -1509 -321 -2168 -747 -1038 -671 -1786 -1771
-2031 -2985 -73 -360 -95 -621 -88 -1036 7 -409 40 -673 133 -1043 85 -340
184 -609 344 -934 243 -492 531 -889 931 -1280 1160 -1135 2796 -1583 4384
-1200 743 179 1404 527 2006 1055 530 465 970 1093 1237 1765 405 1017 439
2165 96 3202 -336 1016 -1016 1893 -1919 2474 -595 384 -1280 628 -2005 715
-156 19 -766 28 -920 14z"/>
</g>
</svg>
